<svg width="68" height="68" viewBox="0 0 68 68" fill="none" xmlns="http://www.w3.org/2000/svg">
<path d="M54.6429 30.5392L47.8672 37.3125L44.9286 34.3545C44.7006 34.1268 44.3915 33.999 44.0693 33.9992C43.747 33.9994 43.4381 34.1277 43.2104 34.3557C42.9827 34.5837 42.8549 34.8928 42.8552 35.215C42.8554 35.5373 42.9836 35.8462 43.2116 36.0739L47.0269 39.8892C47.2546 40.1168 47.5634 40.2447 47.8854 40.2447C48.2074 40.2447 48.5162 40.1168 48.7439 39.8892L56.3793 32.2562C56.4953 32.1441 56.5878 32.0102 56.6515 31.862C56.7151 31.7139 56.7486 31.5545 56.75 31.3933C56.7514 31.2321 56.7207 31.0722 56.6596 30.9229C56.5986 30.7737 56.5084 30.6381 56.3944 30.5241C56.2804 30.4101 56.1448 30.3199 55.9956 30.2589C55.8463 30.1978 55.6864 30.1671 55.5252 30.1685C55.364 30.1699 55.2046 30.2034 55.0565 30.267C54.9083 30.3307 54.7744 30.4232 54.6623 30.5392H54.6429Z" fill="#00658B"/>
<path d="M64.3572 35.2143C64.3508 31.7741 63.1286 28.4468 60.9067 25.8205C58.6847 23.1941 55.6059 21.4376 52.2143 20.8614V14.5714C52.2146 14.4118 52.1834 14.2538 52.1226 14.1063C52.0618 13.9587 51.9724 13.8247 51.8597 13.7117L42.1455 3.9974C42.0325 3.88471 41.8984 3.79539 41.7509 3.73455C41.6034 3.67371 41.4453 3.64254 41.2857 3.64282H12.1429C11.8208 3.64282 11.512 3.77076 11.2843 3.99848C11.0565 4.2262 10.9286 4.53506 10.9286 4.85711V10.9285H4.85717C4.53512 10.9285 4.22626 11.0565 3.99854 11.2842C3.77082 11.5119 3.64288 11.8208 3.64288 12.1428V63.1428C3.64288 63.4649 3.77082 63.7737 3.99854 64.0015C4.22626 64.2292 4.53512 64.3571 4.85717 64.3571H46.1429C46.4649 64.3571 46.7738 64.2292 47.0015 64.0015C47.2292 63.7737 47.3572 63.4649 47.3572 63.1428V57.0714H51C51.3221 57.0714 51.6309 56.9435 51.8587 56.7157C52.0864 56.488 52.2143 56.1792 52.2143 55.8571V49.5671C55.6059 48.9909 58.6847 47.2344 60.9067 44.608C63.1286 41.9817 64.3508 38.6545 64.3572 35.2143ZM42.5 7.7884L48.0687 13.3571H42.5V7.7884ZM44.9286 61.9285H6.07146V13.3571H10.9286V55.8571C10.9286 56.1792 11.0565 56.488 11.2843 56.7157C11.512 56.9435 11.8208 57.0714 12.1429 57.0714H44.9286V61.9285ZM49.7857 54.6428H13.3572V6.0714H40.0715V14.5714C40.0715 14.8934 40.1994 15.2023 40.4271 15.43C40.6548 15.6577 40.9637 15.7857 41.2857 15.7857H49.7857V20.6428C45.9212 20.6428 42.2149 22.178 39.4822 24.9107C36.7495 27.6434 35.2143 31.3497 35.2143 35.2143C35.2143 39.0788 36.7495 42.7851 39.4822 45.5178C42.2149 48.2505 45.9212 49.7857 49.7857 49.7857V54.6428ZM49.7857 47.3571C47.3841 47.3571 45.0364 46.6449 43.0395 45.3107C41.0427 43.9764 39.4863 42.0799 38.5672 39.8611C37.6481 37.6423 37.4077 35.2008 37.8762 32.8453C38.3447 30.4898 39.5012 28.3262 41.1994 26.628C42.8977 24.9298 45.0613 23.7733 47.4168 23.3047C49.7723 22.8362 52.2138 23.0767 54.4326 23.9957C56.6514 24.9148 58.5479 26.4712 59.8822 28.468C61.2164 30.4649 61.9286 32.8126 61.9286 35.2143C61.9247 38.4336 60.6442 41.5199 58.3678 43.7963C56.0914 46.0727 53.005 47.3533 49.7857 47.3571Z" fill="#00658B"/>
<path d="M25.5 33.1402L21.7406 36.9142L20.2835 35.4571C20.0558 35.2291 19.7468 35.1008 19.4246 35.1006C19.1024 35.1004 18.7933 35.2282 18.5653 35.4559C18.3373 35.6836 18.209 35.9925 18.2088 36.3147C18.2086 36.6369 18.3364 36.9461 18.564 37.1741L20.8785 39.4861C21.1062 39.7137 21.415 39.8416 21.737 39.8416C22.059 39.8416 22.3678 39.7137 22.5955 39.4861L27.2219 34.8718C27.4499 34.6441 27.5781 34.3352 27.5784 34.0129C27.5786 33.6907 27.4508 33.3816 27.2231 33.1536C26.9954 32.9256 26.6865 32.7973 26.3643 32.7971C26.042 32.7969 25.7329 32.9247 25.5049 33.1524L25.5 33.1402Z" fill="#00658B"/>
<path d="M25.5 42.8546L21.7406 46.6286L20.2835 45.1714C20.1707 45.0585 20.0369 44.9689 19.8895 44.9078C19.7421 44.8466 19.5842 44.8151 19.4246 44.815C19.2651 44.8149 19.1071 44.8462 18.9596 44.9071C18.8122 44.9681 18.6782 45.0575 18.5653 45.1702C18.4524 45.283 18.3628 45.4168 18.3016 45.5642C18.2405 45.7116 18.2089 45.8695 18.2088 46.0291C18.2087 46.1886 18.24 46.3466 18.301 46.4941C18.3619 46.6415 18.4513 46.7755 18.564 46.8884L20.8785 49.2004C21.1062 49.4281 21.415 49.556 21.737 49.556C22.059 49.556 22.3678 49.4281 22.5955 49.2004L27.2219 44.5861C27.4499 44.3585 27.5781 44.0495 27.5784 43.7273C27.5786 43.4051 27.4508 43.0959 27.2231 42.8679C26.9954 42.6399 26.6865 42.5117 26.3643 42.5115C26.042 42.5112 25.7329 42.639 25.5049 42.8667L25.5 42.8546Z" fill="#00658B"/>
<path d="M19.4286 13.357H34C34.3221 13.357 34.6309 13.2291 34.8586 13.0014C35.0864 12.7737 35.2143 12.4648 35.2143 12.1428C35.2143 11.8207 35.0864 11.5118 34.8586 11.2841C34.6309 11.0564 34.3221 10.9285 34 10.9285H19.4286C19.1065 10.9285 18.7977 11.0564 18.57 11.2841C18.3422 11.5118 18.2143 11.8207 18.2143 12.1428C18.2143 12.4648 18.3422 12.7737 18.57 13.0014C18.7977 13.2291 19.1065 13.357 19.4286 13.357Z" fill="#00658B"/>
<path d="M34 18.2144H19.4286C19.1065 18.2144 18.7977 18.3423 18.57 18.57C18.3422 18.7977 18.2143 19.1066 18.2143 19.4286C18.2143 19.7507 18.3422 20.0595 18.57 20.2873C18.7977 20.515 19.1065 20.6429 19.4286 20.6429H34C34.3221 20.6429 34.6309 20.515 34.8586 20.2873C35.0864 20.0595 35.2143 19.7507 35.2143 19.4286C35.2143 19.1066 35.0864 18.7977 34.8586 18.57C34.6309 18.3423 34.3221 18.2144 34 18.2144Z" fill="#00658B"/>
<path d="M26.7143 25.5H19.4286C19.1065 25.5 18.7977 25.6279 18.57 25.8557C18.3422 26.0834 18.2143 26.3922 18.2143 26.7143C18.2143 27.0363 18.3422 27.3452 18.57 27.5729C18.7977 27.8006 19.1065 27.9286 19.4286 27.9286H26.7143C27.0363 27.9286 27.3452 27.8006 27.5729 27.5729C27.8006 27.3452 27.9286 27.0363 27.9286 26.7143C27.9286 26.3922 27.8006 26.0834 27.5729 25.8557C27.3452 25.6279 27.0363 25.5 26.7143 25.5Z" fill="#00658B"/>
</svg>
