<svg width="68" height="68" viewBox="0 0 68 68" fill="none" xmlns="http://www.w3.org/2000/svg">
<path d="M57.8 3.4H45.577C45.2616 3.04538 44.8751 2.76117 44.4426 2.5659C44.01 2.37063 43.5412 2.26867 43.0667 2.26667H38.5333C38.0055 1.56289 37.3211 0.99167 36.5342 0.598246C35.7474 0.204822 34.8797 0 34 0C33.1203 0 32.2526 0.204822 31.4658 0.598246C30.6789 0.99167 29.9945 1.56289 29.4667 2.26667H24.9333C24.4578 2.26787 23.9879 2.36945 23.5543 2.56475C23.1208 2.76004 22.7333 3.04467 22.4173 3.4H10.2C9.29704 3.3991 8.43067 3.7567 7.79123 4.39422C7.15179 5.03175 6.7916 5.89705 6.78979 6.8V64.6C6.7916 65.503 7.15179 66.3682 7.79123 67.0058C8.43067 67.6433 9.29704 68.0009 10.2 68H57.8C58.7012 67.9982 59.5649 67.6394 60.2022 67.0022C60.8394 66.3649 61.1982 65.5012 61.2 64.6V6.8C61.1982 5.89882 60.8394 5.03506 60.2022 4.39782C59.5649 3.76059 58.7012 3.4018 57.8 3.4ZM24.9333 11.3333H43.0667C43.542 11.332 44.0117 11.2303 44.445 11.035C44.8784 10.8397 45.2657 10.5552 45.5815 10.2H53.2667C53.5672 10.2 53.8555 10.3194 54.0681 10.5319C54.2806 10.7445 54.4 11.0328 54.4 11.3333V61.2L13.6 61.2453V11.3333C13.6 11.0328 13.7194 10.7445 13.9319 10.5319C14.1445 10.3194 14.4328 10.2 14.7333 10.2H22.4173C22.7333 10.5553 23.1208 10.84 23.5543 11.0353C23.9879 11.2306 24.4578 11.3321 24.9333 11.3333ZM24.9333 4.53333H30.0787C30.2778 4.53353 30.4735 4.48125 30.646 4.38177C30.8185 4.28229 30.9617 4.13912 31.0613 3.96667C31.3591 3.45104 31.7875 3.02288 32.3032 2.7252C32.8189 2.42752 33.4039 2.27081 33.9994 2.27081C34.5949 2.27081 35.1799 2.42752 35.6957 2.7252C36.2114 3.02288 36.6397 3.45104 36.9376 3.96667C37.0373 4.13928 37.1807 4.28257 37.3534 4.38206C37.5261 4.48155 37.722 4.53373 37.9213 4.53333H43.0667C43.3672 4.53333 43.6555 4.65274 43.8681 4.86528C44.0806 5.07782 44.2 5.36609 44.2 5.66667V7.93333C44.2 8.23391 44.0806 8.52218 43.8681 8.73472C43.6555 8.94726 43.3672 9.06667 43.0667 9.06667H24.9333C24.6327 9.06667 24.3445 8.94726 24.1319 8.73472C23.9194 8.52218 23.8 8.23391 23.8 7.93333V5.66667C23.8 5.36609 23.9194 5.07782 24.1319 4.86528C24.3445 4.65274 24.6327 4.53333 24.9333 4.53333ZM58.9333 64.6C58.9333 64.9006 58.8139 65.1889 58.6014 65.4014C58.3888 65.6139 58.1006 65.7333 57.8 65.7333H10.2C10.0507 65.7341 9.9027 65.7053 9.76455 65.6487C9.62639 65.5921 9.50078 65.5087 9.39494 65.4034C9.2891 65.2981 9.20511 65.1729 9.1478 65.035C9.09049 64.8971 9.06099 64.7493 9.06099 64.6V6.8C9.06099 6.65069 9.09049 6.50285 9.1478 6.36498C9.20511 6.22711 9.2891 6.10192 9.39494 5.9966C9.50078 5.89129 9.62639 5.80793 9.76455 5.75131C9.9027 5.69468 10.0507 5.66592 10.2 5.66667H21.5333V7.93333H14.7333C13.8316 7.93333 12.9668 8.29155 12.3292 8.92917C11.6915 9.56679 11.3333 10.4316 11.3333 11.3333V61.2453C11.3399 61.8403 11.5823 62.4083 12.0072 62.8248C12.4322 63.2413 13.005 63.4721 13.6 63.4667H54.4C55.0012 63.4667 55.5777 63.2279 56.0028 62.8028C56.4279 62.3777 56.6667 61.8012 56.6667 61.2V11.3333C56.6667 10.4316 56.3084 9.56679 55.6708 8.92917C55.0332 8.29155 54.1684 7.93333 53.2667 7.93333H46.4667V5.66667H57.8C58.1006 5.66667 58.3888 5.78607 58.6014 5.99861C58.8139 6.21115 58.9333 6.49942 58.9333 6.8V64.6Z" fill="#00658B"/>
<path d="M32.8667 19.2667H51C51.3006 19.2667 51.5889 19.1473 51.8014 18.9347C52.0139 18.7222 52.1333 18.4339 52.1333 18.1333C52.1333 17.8328 52.0139 17.5445 51.8014 17.3319C51.5889 17.1194 51.3006 17 51 17H32.8667C32.5661 17 32.2778 17.1194 32.0653 17.3319C31.8527 17.5445 31.7333 17.8328 31.7333 18.1333C31.7333 18.4339 31.8527 18.7222 32.0653 18.9347C32.2778 19.1473 32.5661 19.2667 32.8667 19.2667Z" fill="#00658B"/>
<path d="M32.8667 23.8001H51C51.3006 23.8001 51.5889 23.6807 51.8014 23.4682C52.0139 23.2556 52.1333 22.9674 52.1333 22.6668C52.1333 22.3662 52.0139 22.0779 51.8014 21.8654C51.5889 21.6529 51.3006 21.5334 51 21.5334H32.8667C32.5661 21.5334 32.2778 21.6529 32.0653 21.8654C31.8527 22.0779 31.7333 22.3662 31.7333 22.6668C31.7333 22.9674 31.8527 23.2556 32.0653 23.4682C32.2778 23.6807 32.5661 23.8001 32.8667 23.8001Z" fill="#00658B"/>
<path d="M32.8667 35.1334H51C51.3006 35.1334 51.5889 35.014 51.8014 34.8014C52.0139 34.5889 52.1333 34.3006 52.1333 34C52.1333 33.6995 52.0139 33.4112 51.8014 33.1986C51.5889 32.9861 51.3006 32.8667 51 32.8667H32.8667C32.5661 32.8667 32.2778 32.9861 32.0653 33.1986C31.8527 33.4112 31.7333 33.6995 31.7333 34C31.7333 34.3006 31.8527 34.5889 32.0653 34.8014C32.2778 35.014 32.5661 35.1334 32.8667 35.1334Z" fill="#00658B"/>
<path d="M32.8667 39.6666H51C51.3006 39.6666 51.5889 39.5472 51.8014 39.3346C52.0139 39.1221 52.1333 38.8338 52.1333 38.5332C52.1333 38.2327 52.0139 37.9444 51.8014 37.7318C51.5889 37.5193 51.3006 37.3999 51 37.3999H32.8667C32.5661 37.3999 32.2778 37.5193 32.0653 37.7318C31.8527 37.9444 31.7333 38.2327 31.7333 38.5332C31.7333 38.8338 31.8527 39.1221 32.0653 39.3346C32.2778 39.5472 32.5661 39.6666 32.8667 39.6666Z" fill="#00658B"/>
<path d="M32.8667 51.0001H51C51.3006 51.0001 51.5889 50.8807 51.8014 50.6681C52.0139 50.4556 52.1333 50.1673 52.1333 49.8667C52.1333 49.5662 52.0139 49.2779 51.8014 49.0653C51.5889 48.8528 51.3006 48.7334 51 48.7334H32.8667C32.5661 48.7334 32.2778 48.8528 32.0653 49.0653C31.8527 49.2779 31.7333 49.5662 31.7333 49.8667C31.7333 50.1673 31.8527 50.4556 32.0653 50.6681C32.2778 50.8807 32.5661 51.0001 32.8667 51.0001Z" fill="#00658B"/>
<path d="M32.8667 55.5333H51C51.3006 55.5333 51.5889 55.4139 51.8014 55.2013C52.0139 54.9888 52.1333 54.7005 52.1333 54.3999C52.1333 54.0994 52.0139 53.8111 51.8014 53.5985C51.5889 53.386 51.3006 53.2666 51 53.2666H32.8667C32.5661 53.2666 32.2778 53.386 32.0653 53.5985C31.8527 53.8111 31.7333 54.0994 31.7333 54.3999C31.7333 54.7005 31.8527 54.9888 32.0653 55.2013C32.2778 55.4139 32.5661 55.5333 32.8667 55.5333Z" fill="#00658B"/>
<path d="M18.1333 27.2001H27.2C27.8012 27.2001 28.3777 26.9613 28.8028 26.5362C29.2279 26.1111 29.4667 25.5346 29.4667 24.9334V15.8668C29.4667 15.2656 29.2279 14.6891 28.8028 14.264C28.3777 13.8389 27.8012 13.6001 27.2 13.6001H18.1333C17.5322 13.6001 16.9556 13.8389 16.5306 14.264C16.1055 14.6891 15.8667 15.2656 15.8667 15.8668V24.9334C15.8667 25.5346 16.1055 26.1111 16.5306 26.5362C16.9556 26.9613 17.5322 27.2001 18.1333 27.2001ZM18.1333 15.8668H27.2V24.9334H18.1333V15.8668Z" fill="#00658B"/>
<path d="M18.1333 43.0666H27.2C27.8012 43.0666 28.3777 42.8277 28.8028 42.4027C29.2279 41.9776 29.4667 41.401 29.4667 40.7999V31.7332C29.4667 31.1321 29.2279 30.5555 28.8028 30.1304C28.3777 29.7054 27.8012 29.4666 27.2 29.4666H18.1333C17.5322 29.4666 16.9556 29.7054 16.5306 30.1304C16.1055 30.5555 15.8667 31.1321 15.8667 31.7332V40.7999C15.8667 41.401 16.1055 41.9776 16.5306 42.4027C16.9556 42.8277 17.5322 43.0666 18.1333 43.0666ZM18.1333 31.7332H27.2V40.7999H18.1333V31.7332Z" fill="#00658B"/>
<path d="M18.1333 58.9333H27.2C27.8012 58.9333 28.3777 58.6944 28.8028 58.2694C29.2279 57.8443 29.4667 57.2677 29.4667 56.6666V47.5999C29.4667 46.9988 29.2279 46.4222 28.8028 45.9971C28.3777 45.5721 27.8012 45.3333 27.2 45.3333H18.1333C17.5322 45.3333 16.9556 45.5721 16.5306 45.9971C16.1055 46.4222 15.8667 46.9988 15.8667 47.5999V56.6666C15.8667 57.2677 16.1055 57.8443 16.5306 58.2694C16.9556 58.6944 17.5322 58.9333 18.1333 58.9333ZM18.1333 47.5999H27.2V56.6666H18.1333V47.5999Z" fill="#00658B"/>
<path d="M24.2692 36.2667L25.7335 34.8013C25.8417 34.6968 25.9281 34.5717 25.9875 34.4334C26.0468 34.2952 26.0781 34.1464 26.0794 33.996C26.0807 33.8455 26.0521 33.6962 25.9951 33.557C25.9381 33.4177 25.8539 33.2911 25.7475 33.1847C25.6411 33.0783 25.5146 32.9942 25.3753 32.9372C25.236 32.8802 25.0868 32.8515 24.9363 32.8528C24.7858 32.8541 24.6371 32.8854 24.4988 32.9448C24.3605 33.0042 24.2355 33.0905 24.1309 33.1988L22.6667 34.6642L21.2013 33.1988C20.9875 32.9923 20.7012 32.8781 20.4041 32.8807C20.1069 32.8833 19.8227 33.0025 19.6125 33.2126C19.4024 33.4227 19.2832 33.707 19.2806 34.0041C19.2781 34.3013 19.3923 34.5876 19.5987 34.8013L21.0641 36.2667L19.5987 37.7321C19.3923 37.9459 19.2781 38.2321 19.2806 38.5293C19.2832 38.8265 19.4024 39.1107 19.6125 39.3208C19.8227 39.531 20.1069 39.6502 20.4041 39.6527C20.7012 39.6553 20.9875 39.5411 21.2013 39.3346L22.6667 37.8692L24.1321 39.3346C24.3458 39.5411 24.6321 39.6553 24.9293 39.6527C25.2264 39.6502 25.5107 39.531 25.7208 39.3208C25.9309 39.1107 26.0501 38.8265 26.0527 38.5293C26.0553 38.2321 25.941 37.9459 25.7346 37.7321L24.2692 36.2667Z" fill="#00658B"/>
<path d="M24.0267 17.4533L21.4109 20.9417L21.2013 20.7321C20.9875 20.5256 20.7012 20.4114 20.4041 20.414C20.1069 20.4166 19.8227 20.5357 19.6125 20.7459C19.4024 20.956 19.2832 21.2403 19.2806 21.5374C19.2781 21.8346 19.3923 22.1209 19.5987 22.3346C20.7638 23.4997 20.944 23.8 21.5333 23.8C21.7093 23.8 21.8828 23.759 22.0402 23.6804C22.1975 23.6017 22.3344 23.4874 22.44 23.3467L25.84 18.8133C26.0203 18.5729 26.0978 18.2706 26.0553 17.9731C26.0128 17.6755 25.8538 17.407 25.6133 17.2267C25.4943 17.1374 25.3588 17.0724 25.2146 17.0355C25.0704 16.9985 24.9204 16.9903 24.7731 17.0114C24.4755 17.0539 24.207 17.2129 24.0267 17.4533Z" fill="#00658B"/>
<path d="M24.0267 49.1867L21.4109 52.6751L21.2013 52.4655C20.9875 52.259 20.7012 52.1448 20.4041 52.1474C20.1069 52.1499 19.8227 52.2691 19.6125 52.4793C19.4024 52.6894 19.2832 52.9737 19.2806 53.2708C19.2781 53.568 19.3923 53.8542 19.5987 54.068C20.7638 55.2331 20.944 55.5334 21.5333 55.5334C21.7093 55.5334 21.8828 55.4924 22.0402 55.4137C22.1975 55.3351 22.3344 55.2208 22.44 55.0801L25.84 50.5467C25.9293 50.4277 25.9943 50.2922 26.0312 50.148C26.0681 50.0038 26.0763 49.8538 26.0553 49.7065C26.0342 49.5591 25.9844 49.4174 25.9085 49.2893C25.8327 49.1612 25.7324 49.0494 25.6133 48.9601C25.4943 48.8708 25.3588 48.8058 25.2146 48.7689C25.0704 48.7319 24.9204 48.7237 24.7731 48.7448C24.6257 48.7658 24.484 48.8157 24.3559 48.8915C24.2278 48.9674 24.116 49.0677 24.0267 49.1867Z" fill="#00658B"/>
</svg>
